/* XPM */
static char *b9082da7ca78475fa5db66373c311aca55MqiSVvQEMk5rxT[] = {
/* columns rows colors chars-per-pixel */
"32 32 168 2 ",
"   c #35211E",
".  c #4B2E1F",
"X  c #53301F",
"o  c #6F311B",
"O  c #422B26",
"+  c #4B2F21",
"@  c #482E29",
"#  c #4E3122",
"$  c #4D322A",
"%  c #543524",
"&  c #5A3724",
"*  c #5B3A26",
"=  c #53362B",
"-  c #56392B",
";  c #5C3B2A",
":  c #573A33",
">  c #5B3D34",
",  c #623522",
"<  c #613E27",
"1  c #613E2A",
"2  c #7E3F24",
"3  c #5E4233",
"4  c #65422C",
"5  c #6A452E",
"6  c #6E482F",
"7  c #70492E",
"8  c #634333",
"9  c #6B4630",
"0  c #674A37",
"q  c #6E4932",
"w  c #68473C",
"e  c #6C4B3C",
"r  c #734D34",
"t  c #794F36",
"y  c #724E3B",
"u  c #7A4533",
"i  c #775036",
"p  c #7A5236",
"a  c #76513A",
"s  c #7C5439",
"d  c #7E5A3F",
"f  c #AE3708",
"g  c #AE3C0E",
"h  c #A73E16",
"j  c #8E4A16",
"k  c #9A4A1E",
"l  c #9C531E",
"z  c #B6460E",
"x  c #BA470C",
"c  c #BD4B0D",
"v  c #AB4718",
"b  c #A1431B",
"n  c #B24512",
"m  c #B84310",
"M  c #B35919",
"N  c #B46D09",
"B  c #B66815",
"V  c #844729",
"C  c #8B492B",
"Z  c #994421",
"A  c #974D27",
"S  c #984D28",
"D  c #9C5622",
"F  c #93542B",
"G  c #845234",
"H  c #8A5635",
"J  c #80573A",
"K  c #82593C",
"L  c #815A3C",
"P  c #845B3C",
"I  c #855B3F",
"U  c #865D3D",
"Y  c #835A3B",
"T  c #895E3D",
"R  c #915B36",
"E  c #87603F",
"W  c #8A603E",
"Q  c #8A603E",
"!  c #A2642E",
"~  c #AB6426",
"^  c #B16427",
"/  c #B16C24",
"(  c #B4702F",
")  c #B37E2F",
"_  c #B37D32",
"`  c #C44704",
"'  c #C64A06",
"]  c #CB5505",
"[  c #CE6206",
"{  c #D46505",
"}  c #D46A05",
"|  c #DA6C04",
" . c #D67305",
".. c #D97306",
"X. c #C07211",
"o. c #E17E03",
"O. c #825C41",
"+. c #865F41",
"@. c #825C42",
"#. c #866045",
"$. c #8C6343",
"%. c #8F6847",
"&. c #8C6648",
"*. c #906543",
"=. c #916947",
"-. c #BD8F31",
";. c #CE8806",
":. c #E58905",
">. c #E89304",
",. c #E69408",
"<. c #F59E1A",
"1. c #ECA003",
"2. c #EFAD03",
"3. c #E1AD08",
"4. c #F3AE02",
"5. c #FAAE03",
"6. c #F4B701",
"7. c #FCB502",
"8. c #FCBB02",
"9. c #FAB00A",
"0. c #FDBC0E",
"q. c #F5A01B",
"w. c #FAB313",
"e. c #CB8B29",
"r. c #C09133",
"t. c #F7AD23",
"y. c #F9B822",
"u. c #F7B529",
"i. c #E7BA34",
"p. c #FEC300",
"a. c #FDCC01",
"s. c #FEC50D",
"d. c #FDCC0E",
"f. c #FDD301",
"g. c #FEDB00",
"h. c #FFD70E",
"j. c #FAC41B",
"k. c #FBC314",
"l. c #FED013",
"z. c #FDD51F",
"x. c #FFE300",
"c. c #FFEC00",
"v. c #FFF000",
"b. c #FFF00A",
"n. c #FFED1C",
"m. c #FBCF23",
"M. c #FED426",
"N. c #FCD22F",
"B. c #FEDB24",
"V. c #FDDB37",
"C. c #FDE32D",
"Z. c #FEEE2C",
"A. c #FEEE34",
"S. c #FAE639",
"D. c #FEF235",
"F. c #FEF43B",
"G. c #E3AF42",
"H. c #FDE645",
"J. c #FDED43",
"K. c #FEF546",
"L. c #FEF545",
"P. c #FEF345",
"I. c #FEF549",
"U. c #FEF34C",
"Y. c #FEEE58",
"T. c #F9E353",
"R. c #FEF455",
"E. c #FEF35B",
/* pixels */
"p p p p p t r r r r 6 6 q r r r r r r q q q r r r i r r 8 = &.K ",
"U P J t q r p K s p a t s P P U U K K s s s s s p U $.&.e $ O.$.",
"8 4 4 4 1 4 q r r 6 4 4 1 4 4 5 r t t r q t t r r i r 5 : O 0 4 ",
"q 6 5 5 5 9 9 5 5 5 5 6 6 6 q 0 = +.W U J J s p r 7 6 r r 6 6 5 ",
"Y P P J p s r i i s p p K +.#.y = &.K s J s p r p K U s s p p s ",
"t r t p s s p p s s p p J p a > $ e r p q q r r r p p J s t r r ",
"< 4 - = y s r r r q 5 < < < 4 ; ; < * & * % % % * % ; * & & * 4 ",
"P O.e > &.s P W P s p J H ! _ r.-.) ! R U P s s s p p p d K K K ",
"U a > - d p d p t p t l 3.S.U.I.L.L.J.i.~ t s s s p p s s s s U ",
"* * # + % + # % # X N x.v.F.I.I.L.L.L.L.J.e., r r 4 < * * * * * ",
"Y P J p s J U Y J X.c.v.v.C.u.q.<.t.V.L.L.P.e.+.K $.*.W Y s J Y ",
"s p p t r r r t k g.c.c.8.9.z.J.E.V.w.t.P.P.J.^ p t q r r r r p ",
"; ; % % % % & & ;.c.c.a.8.h.L.P.J.U.Y.s.y.L.U.G., % % # ; % % ; ",
"J J s s Y P P F 6.c.c.8.p.g.D.m.j.H.H.d.0.H.R.T.! W a $ $.$.U U ",
"p t r r y s t D f.x.g.p.p.a.b.D.C.j.k.d.s.N.U.U.( #.e @ a a a s ",
"% % % % ; 4 < j g.x.g.p.p.8.7.d.A.L.C.d.s.M.U.U./ % @   - - * * ",
"r r r r r q q l a.g.g.8.8.f.x.p.7.n.Z.s.s.B.A.n.B r r 6 6 q r r ",
"U P s s a s s A 4.g.g.8.8.g.v.x.g.v.x.8.7.g.x.f.M s s p p s U U ",
"9 q t t r q t V o.f.g.a.7.7.a.c.c.f.8.7.p.x.x.2.k r 6 4 5 4 4 5 ",
"4 4 = - d i J G c 8.f.g.l.7.5.5.7.5.7.p.g.x.g.{ 2 4 4 4 4 4 5 5 ",
"$.#.w : =.$.U J Z | p.a.f.f.8.7.7.8.a.g.g.g.>.n J p p p d s s U ",
"s y : $ 0 8 t r r g } 6.p.a.a.a.a.a.f.f.a.:.' G s t t p s p p J ",
"< 4 ; * ; % & * % , f { ,.4.p.p.p.p.8.1...' o a s r r r 6 4 ; * ",
"J p J i p J W U J s p h ` ] [  ...} [ ] m u 3 #.a P U P s p J J ",
"J J s p r r r r i p s s C b n x x z v S p > 8 O.d K r r t t t K ",
"% % % % % % % * ; ; r 6 < * * & , * * ; * # + % . + % # + . + # ",
"p p K U U U $.&.w 0 $.d E $.U J s J P P Y J p p s Y J J s s s p ",
"s P J s J U K y : 8 K a t t t t r r p p p p t q q r r p s J J s ",
"1 4 4 4 4 4 4 1 = = 4 ; < ; ; ; ; ; 4 5 4 ; ; < ; < < 4 5 9 6 < ",
"Y s s s J Y P J p r t p s p p p t t t t p s s J J J O.> a %.W P ",
"t t r r r p p s s p a p s s J J J s p s s s i p P $.@.: 3 s s s ",
"* * & * ; 5 5 4 < * ; ; ; ; < 4 5 5 < 4 5 5 4 6 5 < - O - 8 ; ; "
};
