/* XPM */
static char *dfe1a45551134e3ed1ad071629b29933N2hDaUFmPzKytlbh[] = {
/* columns rows colors chars-per-pixel */
"32 32 128 2 ",
"   c #4E2825",
".  c #572A27",
"X  c #5B2925",
"o  c #572D29",
"O  c #5D2D2A",
"+  c #5E312D",
"@  c #5C3330",
"#  c #652B26",
"$  c #6B2B26",
"%  c #632E2A",
"&  c #6B2E2A",
"*  c #732C27",
"=  c #792D27",
"-  c #732E29",
";  c #7B2F29",
":  c #65322E",
">  c #6C322E",
",  c #74322D",
"<  c #7B322C",
"1  c #653431",
"2  c #6C3632",
"3  c #673834",
"4  c #6E3935",
"5  c #6E3C38",
"6  c #733631",
"7  c #7B3631",
"8  c #733A35",
"9  c #7C3934",
"0  c #743C38",
"q  c #7C3E39",
"w  c #84312A",
"e  c #85312B",
"r  c #85322C",
"t  c #86322C",
"y  c #87322C",
"u  c #80342E",
"i  c #83342E",
"p  c #82352F",
"a  c #87352F",
"s  c #85322C",
"d  c #88322C",
"f  c #8A332C",
"g  c #8B332C",
"h  c #88342E",
"j  c #89342E",
"k  c #8A352F",
"l  c #8F342D",
"z  c #8F352E",
"x  c #8B342D",
"c  c #90352E",
"v  c #91352E",
"b  c #91352E",
"n  c #803731",
"m  c #843731",
"M  c #853732",
"N  c #843731",
"B  c #893630",
"V  c #8E3730",
"C  c #833933",
"Z  c #853832",
"A  c #863832",
"S  c #863933",
"D  c #823934",
"F  c #803B35",
"G  c #823B36",
"H  c #853934",
"J  c #863934",
"K  c #873934",
"L  c #843B36",
"P  c #823C36",
"I  c #843C37",
"U  c #863C37",
"Y  c #873C37",
"T  c #843B35",
"R  c #883933",
"E  c #893A34",
"W  c #8A3B35",
"Q  c #893C36",
"!  c #883D37",
"~  c #8A3C36",
"^  c #8C3C36",
"/  c #8C3D37",
"(  c #8D3D37",
")  c #8B3B35",
"_  c #823D38",
"`  c #813E38",
"'  c #803E39",
"]  c #823F3A",
"[  c #873E39",
"{  c #873F39",
"}  c #873F3A",
"|  c #843E39",
" . c #8D3E38",
".. c #8C3F39",
"X. c #8D3F39",
"o. c #8E3E38",
"O. c #8F3E38",
"+. c #8F3F39",
"@. c #8E3E39",
"#. c #923730",
"$. c #913A33",
"%. c #933A33",
"&. c #913832",
"*. c #903F39",
"=. c #903F39",
"-. c #80403B",
";. c #84403B",
":. c #87433E",
">. c #84413C",
",. c #88403B",
"<. c #8A403B",
"1. c #8C403A",
"2. c #8D403A",
"3. c #8F403A",
"4. c #8E403B",
"5. c #89423D",
"6. c #8B423D",
"7. c #8B413C",
"8. c #91403A",
"9. c #90403B",
"0. c #90413B",
"q. c #92413B",
"w. c #92423C",
"e. c #92433D",
"r. c #93433D",
"t. c #94443E",
"y. c #91423C",
"u. c #934640",
/* pixels */
"U *.*.*.6 *.*.*.*.9 7 8 : 9 } & & - 7 3 8 9 6 *.i Z *.9 *.*.*.F ",
"< ^ ^ ^ 2 ^ ^ ^ 8 8 M h 6 *.< - ; w y 6 *.<.0 9 ; * < 6 ^ ^ ^ 9 ",
"> 9 9 9 : q 8 5 8 y y y > ^ H & & ; w 9 *.*.*.0 3 6 9 : q q q 8 ",
"$ = c l # 8 :.8.} - w % 4 q ;.q q ' -.8 : H 2 O.*.9 , # W *.*.F ",
"i ; w = O 6.*.*.M + 9 Q 9 *.*.F U *.*.2 u.9 : H *.W 6 % = ^ *.9 ",
"a c w % 8 *.*.7 8 $.c c % 2 8 1 : 2 % > O.*.8.8 , O.^ : $ i *.F ",
"< d $ 6 ' 7 6 9 #.c < 8 > B y - $ O.t.5 8 7 *.*.q & 8 <.6 < R 7 ",
"8 ' 0 O.*.> q > d > 6.*.> y w $ # Z O.9 h 7 & Z 2 q 6 *.O.1 ' 8 ",
"U 6 1.*.W 0 8.1.: 8 *.^ : q 9 6 > P 8 > w y 8 1 V #.> Q *.Q 9 F ",
"U 6 *.*.> 8.*.> 1.1.: @ O.*.O.- ; c c N 1 1 ^ , # d c & *.*.2 F ",
"6 4 > 7 6 *., F *., 9 $.2 ^ , . % < c 2 e.0 C W 6 * c , & : 8 6 ",
"3 = - . O.O.1 : < 8 c c > 1 6.' } 8 4 9 *.8.: , : : ; d % h h 3 ",
"> y y 2 6 4 ' e.: l c < U h 6 9 H q e.q F *.U 8 1.8 2 6 : y y % ",
"< y = # - % O.*.O ; c 8 : < : 8 8 3 C 8 > O.7 O *.O., Q > ; y - ",
"< y ; # * % *.O.6 6 : ..8.1 8.& U 1.> h - 4 ;.6 ^ *., ; $ * y < ",
"$ * # > $ . , > & - . , , > , X , , O - $ % , O , , O , $ X - % ",
"' 6.-.q 6.2 Z 6 q 9 O , 6.8 6.> , W 4 7 ' > , O } 6.6 W Z 0 <.4 ",
"U *...9 *.> y ; 9 O.% # 4 3 C , - - 6 > % # i % W *.< c < F *.6 ",
"U *.W 9 *.2 3 q 1 0 6.: 8.*.3 : 4 q y w 8 9 > 2 6 3 < c & O.*.: ",
"6 > 8 8 *.H 7 *.6 H *.U > O.q 9 <.8 y 3 1.*., i y & l c 2 8 6 X ",
"O W y > ^ & O ^ Q O O.*.: 4 > 6 7 O 4 7 *.W o y y + < l q 8.6.O ",
"> < y y 1 7., # 2 ^ > , ' h R 6 q e.8.3 C 4 7.O & 7.:.O ..*.9 > ",
"a & y y & O.*.3 y c l O < y y < U *.O., 4 e.*.7 8 *.^ 6 *.*.% 9 ",
"a - w < 3 2 *.*.% y c l 3 0 > . % 2 q 0 M O.9 2 *.*.2 : O.7 7 F ",
"% #   8 8.} , H 0 q - - ..*.8.} <.e.*.6 * % 6 2 O.> } a #   % O ",
"<.t.F # ; O.9 + 8.*.H : 6 W *.9 U *.^ > 4 W ; a . ' y y # < ) 7 ",
"U *.*.> - i *.F : O.*.*.q 9 q 4 8 q q 8 c w d X U y y & $ ; y < ",
"U *.*.i . $ ^ 6 } q > 6 < y y $ 7 O.*.6 d & 2 : = y $ X = w y < ",
"$ < N *.> & & 6 c c $.6 % % - - $ , > 3 8 7.Z ; . # 7 , y y y < ",
"1 2 2 8 @ 2 1 + < c c c q e.} 8 7 < $.8 *.*.*.7 + 2 8 1 6 6 6 1 ",
"7 O.*.*.6 *.*.*.6 . - & O.*.*.F y c c < F , O < c c c 9 *.*.*.F ",
"U *.*.*.6 *.*.*.*., - # % & $ X # - - & > 7 , $.$.$.$.9 *.*.*.F "
};
