/* XPM */
static char *_f415857e93844a0f794a689660f2ddbdOg99EPXL9MvUhLP[] = {
/* columns rows colors chars-per-pixel */
"32 32 153 2 ",
"   c #35211E",
".  c #4B2E1F",
"X  c #432B25",
"o  c #4C2F21",
"O  c #482E29",
"+  c #4D3023",
"@  c #4D322A",
"#  c #543524",
"$  c #583725",
"%  c #5B3A26",
"&  c #53362B",
"*  c #56392B",
"=  c #5C3B29",
"-  c #563A32",
";  c #5B3D34",
":  c #613E27",
">  c #613E2A",
",  c #5D4132",
"<  c #65422C",
"1  c #6A452D",
"2  c #6E492F",
"3  c #70492E",
"4  c #634333",
"5  c #6B4631",
"6  c #674A37",
"7  c #6E4932",
"8  c #68473C",
"9  c #674839",
"0  c #6C4B3C",
"q  c #734D34",
"w  c #784F36",
"e  c #724E3B",
"r  c #775036",
"t  c #785037",
"y  c #795037",
"u  c #795137",
"i  c #785136",
"p  c #785236",
"a  c #795336",
"s  c #785237",
"d  c #7A5236",
"f  c #7A5237",
"g  c #7B5237",
"h  c #795235",
"j  c #7C5336",
"k  c #7C5337",
"l  c #7A5437",
"z  c #7B5437",
"x  c #7C5536",
"c  c #7C5437",
"v  c #7D5537",
"b  c #7A5236",
"n  c #775138",
"m  c #765139",
"M  c #77523D",
"N  c #76513A",
"B  c #785138",
"V  c #795139",
"C  c #7B5138",
"Z  c #795238",
"A  c #7B5238",
"S  c #7B5338",
"D  c #7A5239",
"F  c #7A5339",
"G  c #7A523A",
"H  c #7B533A",
"J  c #7A533B",
"K  c #7D5338",
"L  c #7B5438",
"P  c #7B5439",
"I  c #7A543A",
"U  c #7C5438",
"Y  c #7D5438",
"T  c #7C5439",
"R  c #7D5539",
"E  c #7F5538",
"W  c #7E5539",
"Q  c #7D5639",
"!  c #7D5739",
"~  c #7F5639",
"^  c #7F5739",
"/  c #7C543A",
"(  c #7D543A",
")  c #7C553A",
"_  c #7D553A",
"`  c #7F553A",
"'  c #7C563A",
"]  c #7F563A",
"[  c #7E573A",
"{  c #7F563B",
"}  c #7F573D",
"|  c #7C5439",
" . c #7E593F",
".. c #7E5B3F",
"X. c #745041",
"o. c #805638",
"O. c #80573A",
"+. c #80573B",
"@. c #80573D",
"#. c #81573D",
"$. c #80573A",
"%. c #835A39",
"&. c #80583A",
"*. c #82583A",
"=. c #82593A",
"-. c #83593B",
";. c #845A3A",
":. c #845B3B",
">. c #855B3B",
",. c #81583C",
"<. c #82593C",
"1. c #83593D",
"2. c #815A3C",
"3. c #815A3D",
"4. c #825A3C",
"5. c #845B3C",
"6. c #855B3C",
"7. c #845B3D",
"8. c #855B3F",
"9. c #835C3D",
"0. c #855C3C",
"q. c #875D3C",
"w. c #865D3D",
"e. c #855D3E",
"r. c #875C3E",
"t. c #875D3E",
"y. c #875E3E",
"u. c #835A3C",
"i. c #885E3D",
"p. c #8A5F3C",
"a. c #895E3D",
"s. c #87603F",
"d. c #88603E",
"f. c #8B603E",
"g. c #8A603E",
"h. c #815C41",
"j. c #825C41",
"k. c #875E40",
"l. c #845F42",
"z. c #825D43",
"x. c #885F40",
"c. c #866145",
"v. c #8A6141",
"b. c #896246",
"n. c #8C6546",
"m. c #8C6343",
"M. c #8F6847",
"N. c #8D6548",
"B. c #8C6748",
"V. c #8C6749",
"C. c #8D6548",
"Z. c #906543",
"A. c #916947",
/* pixels */
"l a a a a w q q q q 2 2 7 q q q q q q 7 7 7 q q q r q q 4 & B.<.",
"t.5.*.w 7 q Z <.' Z n w I 5.5.t.t.<.<.' ' ' ' ' Z t.Z.B.0 @ j.v.",
"4 < < < > < 7 q q 2 < < > < < 1 q w w q 7 w w q q r q 5 - X 6 < ",
"7 2 1 1 1 5 5 1 1 1 1 2 2 2 7 9 & k.d.a.*.*.x a q 3 2 q q 2 2 1 ",
":.5.5.*.Z ' q r r ' Z Z <.k.b.e & B.<.' +.' a q Z <.t.' I a a ' ",
"w q w a ' ' a Z ' ' a j *.l n ; @ 0 q Z 7 7 q q q Z j +.' w q q ",
": < * & e x q q q 7 1 : : : < = % : % $ % # $ $ % $ = % $ $ % < ",
"5.j.0 ; n.I 9.d.5.' a +.*.:.x ' q w ' a.t.5.' ' ' Z a Z } @.@.<.",
"t.M ; *  .Z } Z w a w w <.*.' K a q q q q a ' ' ' Z a ' ' x ' t.",
"% % + o # o + # + + o o + $ # # # # # $ % $ # q q < : % % % % % ",
":.>.*.l ' +.t.:.*.*.' Z Z w Z <.5.5.t.d.n.0 , l.<.v.m.d.:.K *.:.",
"K a a w q 7 q w r r ' ' ' +.5.*.a ' 5.<.M ; , <.Z w 7 q q q q Z ",
"= = # # # # $ $ $ % % = % % % % % % % % $ + + * $ $ # + % $ $ % ",
"*.+.' ' :.>.>.*.a r a ' ' j a a a w w w K +.:.a.a.d.N @ b.m.a.a.",
"a w q q e ' w Z a q q n Z ' *.<.<.+.' ' ' ' Z ' x.b.0 O M n n ' ",
"$ $ # $ % 1 < % % % % % % = : < < : % : < : < 1 < $ O   * * % % ",
"q q q q q 7 7 q q q q q q 9 + c.d.*.x x ' a w q q q q 2 2 7 q q ",
"t.5.' ' n I ' ' Z n <.m.n.X.@ k.9.t.<.' a q w ' <.' ' Z a ' t.t.",
"5 7 q w q q w w q q q q 5 - X 0 5 5 > < < > < 7 q q 2 < 1 < < 1 ",
"< < & *  .r *.x l r 7 1 < < 1 2 < < < 1 1 < < < 1 < < < < < 1 1 ",
"m.c.8 - A.v.t.*.' w q w <.t.r r q w Z <.*.5.*.' +.Z a Z } ' ' t.",
"' e - @ 6 4 w q q q q 7 r ' a w w 7 7 q q w a ' ' w w Z K a a *.",
": < = % = $ $ % # $ $ % $ = % $ # % = % = * + n x q q q 2 < = % ",
"*.l *.r a *.d.t.*.' Z I r r Z } ' ' ' <.c.0 , b.n 9.t.5.K a *.*.",
"*.+.K a q q q q r Z ' ' Z K *.+.a ' t.9.M ; 4 h.} <.q q w w w <.",
"$ # # # # # $ % % % q 2 : % % $ % % % = % + o # . o # + o . o + ",
"a Z <.t.a.a.m.n.8 6 b.} s.m.a.*.' *.>.>.:.*.a l ' :.*.+.' ' ' Z ",
"' 5.+.' *.t.<.e - 4  .n w w w w q q Z Z a a w 7 7 q q a ' +.+.' ",
"> < < < < < < > & & < % : = = % % = < 1 < = = : = : : < 1 5 2 : ",
":.x x ' *.:.>.*.a q w a ' a a a w w w w a ' ' *.+.*.h.; N M.d.>.",
"w w q q q Z Z K ' Z n Z ' ' *.+.*.' Z ' ' ' r Z 5.m.z.- , J I I ",
"$ % $ % = 1 1 < : % = = = = : < 1 1 : < 1 1 < 2 1 : * X * 4 = = "
};
