/* XPM */
static char *_9e65364f9074905a4e71c978464d9618ndALaUnl5ytG7hG[] = {
/* columns rows colors chars-per-pixel */
"32 32 117 2 ",
"   c #141B1B",
".  c #35211E",
"X  c #3D2936",
"o  c #492C1F",
"O  c #422A24",
"+  c #4B2F21",
"@  c #482D28",
"#  c #4D3123",
"$  c #4E322B",
"%  c #543523",
"&  c #583727",
"*  c #5B3A26",
"=  c #53362C",
"-  c #56392B",
";  c #5B3B2A",
":  c #573B34",
">  c #5A3D33",
",  c #603D26",
"<  c #623F2B",
"1  c #5F4233",
"2  c #65422C",
"3  c #6A452E",
"4  c #6E492F",
"5  c #644433",
"6  c #6C4630",
"7  c #674A37",
"8  c #6E4931",
"9  c #6D4B3C",
"0  c #744D34",
"q  c #784F36",
"w  c #734E3B",
"e  c #775135",
"r  c #7A5236",
"t  c #76513A",
"y  c #7C543B",
"u  c #7D553B",
"i  c #7C543A",
"p  c #7E553B",
"a  c #7D563A",
"s  c #7E573A",
"d  c #7E563B",
"f  c #7D5538",
"g  c #7F573C",
"h  c #7F573D",
"j  c #7C5439",
"k  c #7E593F",
"l  c #7E5B3F",
"z  c #2C354D",
"x  c #404973",
"c  c #805739",
"v  c #80573D",
"b  c #81573D",
"n  c #80573A",
"m  c #825A39",
"M  c #82583A",
"N  c #82593A",
"B  c #83593A",
"V  c #835A3B",
"C  c #845A3A",
"Z  c #845B3A",
"A  c #855B3A",
"S  c #845B3B",
"D  c #855B3B",
"F  c #855C3B",
"G  c #865C3A",
"H  c #82593C",
"J  c #83593D",
"K  c #815A3C",
"L  c #815A3D",
"P  c #845B3C",
"I  c #855B3C",
"U  c #845B3D",
"Y  c #855B3F",
"T  c #855C3D",
"R  c #875D3C",
"E  c #865D3D",
"W  c #875D3D",
"Q  c #855D3E",
"!  c #875C3E",
"~  c #875D3E",
"^  c #875E3E",
"/  c #835A3B",
"(  c #895F3D",
")  c #8A5F3C",
"_  c #885F3E",
"`  c #885C3E",
"'  c #8A603E",
"]  c #8B603E",
"[  c #8A603E",
"{  c #815C41",
"}  c #825C41",
"|  c #875E40",
" . c #845F42",
".. c #815B43",
"X. c #866045",
"o. c #8A6040",
"O. c #8A6141",
"+. c #8E6343",
"@. c #8E6542",
"#. c #896246",
"$. c #896447",
"%. c #8C6546",
"&. c #8E6443",
"*. c #8F6847",
"=. c #8D6548",
"-. c #8C6748",
";. c #8C6749",
":. c #906543",
">. c #916947",
",. c #B25266",
"<. c #B25266",
"1. c #E27285",
"2. c #F6A2A8",
"3. c #F6A2A8",
"4. c #A3A7C2",
"5. c #FDC9C9",
"6. c #F5FFE8",
/* pixels */
"r r r r r q 0 0 0 0 4 4 8 0 0 0 0 0 0 8 8 8 0 0 0 e 0 0 5 = -.H ",
"~ P M q 8 0 y H j y t q j P P ~ ~ H H j j j j j y ~ :.-.9 $ } o.",
"5 2 2 2 <             2 < 2 2 3 0 q q 0 8 q             : O 7 2 ",
"8 4 3 3 3             4 4 4 8 5 = | ' ` M M             0 4 4 3 ",
"S P P     2.2.2.2.2.2.    | #.w = -.H j     2.2.2.2.2.2.        ",
"q 0 q     2.,.,.    2.                      2.    ,.,.2.        ",
", 2 -     2.,.,.    2.                      2.    ,.,.2.        ",
"P } 9 > %.          2.5.5.5.5.5.5.5.5.5.5.5.2.          g v v H ",
"~ t > - k           2.5.5.5.5.5.5.5.5.5.5.5.2.          j f j ~ ",
"* & # + % +     2.2.2.2.2.5.5.5.5.5.5.5.2.2.2.2.2.    * & * * * ",
"S G M r j c     2.2.2.2.2.2.2.2.2.2.2.2.2.2.2.2.2.    ' S j M S ",
"j r r q 0 0     2.2.2.2.2.2.2.2.2.2.2.2.2.2.2.2.2.    0 0 0 0 y ",
"* * % % % %     2.2.2.2.2.2.2.2.2.2.2.2.2.2.2.2.2.    # ; % % ; ",
"M c j j S G     2.2.2.2.2.2.2.2.2.2.2.2.2.2.2.2.2.    $ $.@.` ` ",
"r q 0 0 w j     2.2.X X X X X 2.2.2.X X X X X 2.2.    @ t t t j ",
"% % % % ; 2     2.2.X X X X X 2.2.2.X X X X X 2.2.    . ; & & & ",
"0 0 0 0 0   2.2.2.2.4.z z z z 2.2.2.z z z z 4.2.2.2.2.  4 8 0 0 ",
"~ P j j t   2.2.2.2.6.x x x x 2.2.2.x x x x 6.2.2.2.2.  r j ~ ~ ",
"6 8 q q 0   2.2.2.2.6.x x x x 2.2.2.x x x x 6.2.2.2.2.  3 2 2 3 ",
"2 2 = - k e     2.2.2.2.2.2.2.,.,.,.2.2.2.2.2.2.2.    2 2 2 3 3 ",
"+.X.9 > >.o.    2.2.2.2.2.2.2.,.,.,.2.2.2.2.2.2.2.    y g j j ~ ",
"j w : $ 7 5 q 0     ,.2.2.2.2.2.2.2.2.2.2.2.,.    q q y j r r M ",
", 2 * & ; %     ,.,.1.,.,.,.,.,.,.,.,.,.,.,.1.,.,.    0 4 2 * * ",
"M r M e r M     ,.,.1.,.,.,.,.,.,.,.,.,.,.,.1.,.,.    P j r M M ",
"M c j r 0   2.2.2.2.1.1.1.1.1.1.1.1.1.1.1.1.1.2.2.2.2.  q q q H ",
"% % % % %   2.2.2.2.1.1.1.1.1.1.1.1.1.1.1.1.1.2.2.2.2.  + o + # ",
"r y H ~ `   2.2.2.2.1.1.1.1.1.      1.1.1.1.1.2.2.2.2.  j j j y ",
"j P c j M ~         ,.,.,.              ,.,.,.        r j c c j ",
"< 2 2 2 2 2         ,.,.,.              ,.,.,.        2 3 8 4 , ",
"S f f j M S G m r 0 q r j r r r q q q q r j j M c M { > t *.' G ",
"q q 0 0 0 y y j j y t y j j M c M j y j j j e y P @...> 1 t j j ",
"& & & & ;             * ; ; , 2 3 3 , 2 3 3             - 5 ; ; "
};
