/* XPM */
static char *_29a05093eec4d05ee60ccfb53a4de03wLCW7PaZ8YQmwwXJ[] = {
/* columns rows colors chars-per-pixel */
"32 32 143 2 ",
"   c #231913",
".  c #281E17",
"X  c #281E18",
"o  c #2E2017",
"O  c #2D221B",
"+  c #33251D",
"@  c #38251D",
"#  c #36281F",
"$  c #3E2B1E",
"%  c #2D2621",
"&  c #2E2824",
"*  c #2E2B2A",
"=  c #322722",
"-  c #332A25",
";  c #3D2E24",
":  c #332E2A",
">  c #382F2A",
",  c #3F3027",
"<  c #35312D",
"1  c #3B322D",
"2  c #363433",
"3  c #3B3532",
"4  c #3D3835",
"5  c #3D3C3C",
"6  c #402B1D",
"7  c #42352C",
"8  c #403730",
"9  c #423A34",
"0  c #423D3B",
"q  c #493F38",
"w  c #45413D",
"e  c #49423D",
"r  c #474442",
"t  c #474543",
"y  c #444444",
"u  c gray27",
"i  c #474645",
"p  c #464646",
"a  c #444343",
"s  c #484441",
"d  c #484542",
"f  c #4C4540",
"g  c #4E4743",
"h  c #4A4644",
"j  c #4B4644",
"k  c #484746",
"l  c #494746",
"z  c #484746",
"x  c #4E4843",
"c  c #4B4845",
"v  c #494847",
"b  c #4E4947",
"n  c #474848",
"m  c #474848",
"M  c #484848",
"N  c #494949",
"B  c #4A4948",
"V  c #4A4949",
"C  c #4A4A49",
"Z  c #49494A",
"A  c #494A4A",
"S  c gray29",
"D  c #4B4B4B",
"F  c #4C4A48",
"G  c #4E4C4A",
"H  c #4B4B4C",
"J  c #4B4C4C",
"K  c #4C4C4C",
"L  c #4C4D4D",
"P  c gray30",
"I  c #4E4E4D",
"U  c #4D4E4E",
"Y  c #4E4E4E",
"T  c #4E4E4F",
"R  c #4E4F4F",
"E  c gray31",
"W  c #4D4D4D",
"Q  c #504A45",
"!  c #514B46",
"~  c #504C49",
"^  c #504D4B",
"/  c #544E4A",
"(  c #504E4D",
")  c #514E4D",
"_  c #514F4D",
"`  c #504F4E",
"'  c #514F4E",
"]  c #51504F",
"[  c #52504F",
"{  c #4F4F50",
"}  c #4F4F50",
"|  c #4F5050",
" . c #4F5050",
".. c #505050",
"X. c #505051",
"o. c #505151",
"O. c #515151",
"+. c #525150",
"@. c #525251",
"#. c #535251",
"$. c #505152",
"%. c #515152",
"&. c #515252",
"*. c #515253",
"=. c gray32",
"-. c #535252",
";. c #525353",
":. c #535353",
">. c #545250",
",. c #545352",
"<. c #545353",
"1. c #565453",
"2. c #525354",
"3. c gray33",
"4. c #545455",
"5. c #545555",
"6. c #555555",
"7. c #565554",
"8. c #565555",
"9. c #565656",
"0. c #575656",
"q. c gray34",
"w. c #535353",
"e. c #585756",
"r. c #595857",
"t. c #5A5857",
"y. c #595857",
"u. c #585858",
"i. c gray35",
"p. c #59595A",
"a. c #5A5A5A",
"s. c #5B5B5B",
"d. c gray36",
"f. c #5D5D5C",
"g. c #5D5D5D",
"h. c #5E5D5D",
"j. c gray37",
"k. c #5F5F5F",
"l. c #5B5B5B",
"z. c #606060",
"x. c #626262",
"c. c gray39",
"v. c #626161",
/* pixels */
"2 0 0 e w e ! # 3 h s w ! g ,.9 6.g / x h u e $ @ 9 v ^ s e e w ",
"5 6.=.=.Y =.=.< =.=.Y =.6.6.6.e 6.Y =.Y 6.6.Y a 1 =.=.=.=.Y =.C ",
"2 i.i.=.=.=.=.* C | =.=.Y Y Y 9 e u =.=.| =.Y a 3 =.Y =.6.=.=.a ",
"= * 3 < 3 - : & 2 4 8 1 1 0 9 7 O O - - : 1 a 9 = 1 2 : : 5 5 4 ",
",.=.F 1   3 _ ^ =.i.i.3 Y =.=.6.i.=.v O h 6.i.6.6.Y F X 4 i.i.i.",
"=.=.Y C = Y Y Y Y Y 6.4 Y C Y =.Y Y Y - C Y =.=.Y Y Y t 3 Y Y Y ",
"6.6.Y w 4 C Y =.Y Y 6.3 a Y =.=.Y Y Y 1 C Y Y Y Y C C h < =.Y Y ",
"9 7 1 1 - 5 4 4 < < 2 % : < : : : 1 3 - - 4 4 4 < : 1 1 - 1 4 2 ",
"_ G 9 ,.=.=.6.6.t O w _ _ =.=.=.6.1 0 ] 6.6.6.i.=.C 4 =.r.j.j.6.",
"Y Y 0 Y =.Y =.Y Y 3 C =.Y =.Y Y Y 3 Y =.2.=.Y Y { u 0 C Y Y =.Y ",
"Y u 3 Y 6.Y C J Y > : Y J n Y Y Y 4 s Y Y C C C Y u : a C Y Y Y ",
"2 & + = % > > < < - + - 1 - % : : = + 1 1 : : 3 3 - O - : 1 0 5 ",
"x.6.1.0 O @ e j.i.6.i.4 i.x.x.j.i.i.j.7 e i.=.=.6.6.=._ 3 r.j.i.",
"Y Y =.C 5 h =.Y =.Y =.3 =.Y =.Y Y Y 6.7 h Y =.=.=.=.=.Y 3 =.=.Y ",
"=.=.C u 3 =.Y C C Y C = C Y Y Y C C Y 7 u C C C Y H Y C : C H Y ",
": * < - % < a 3 < : O   - 3 1 3 1 3 < O 1 : - - - & - : + < 3 9 ",
"7 ,.6._ i.x.j.- =.i.j.j.6.6.9 + ; =.j.6.=.=.=.3 1 i.=._ ] Y ] =.",
"0 Y Y Y Y Y =.= =.=.Y Y Y Y C + @ F Y Y Y Y Y Y : 6.Y 2.=.=.Y a ",
"4 C u u u C =.% C =.=.=.=.Y C O + C a u C C u u : 6.Y =.6.=.=.a ",
"1 1 1 : < : 3 O > 1 3 < : 1 : % O : - : < : 2 - + % < 2 < < 1 1 ",
"J a O 0 i.i.6.=.6.1 h F =.=.=.j.F O 0 6.6.6.i.6.=.: O 9 1.1._ i.",
"Y 5 : Y Y Y Y =.Y < u =.=.=.Y =.Y = C 6.| 2.=.Y Y h 3 6.=.=.=.=.",
"Y 5 ; u C C C C C - 5 Y { | Y { { : 3 H C C Y Y Y u 3 C Y | =.| ",
"4 1 $ % - < 3 0 3 O - - : < 3 3 < # o # < - - : - < O % - , 7 9 ",
"i.j.e.j.i.- 1 _ i.e.,.6.,.; b =.6.6.=.6.i.3 C Y _ =.6.=.=.q 7 Y ",
"Y =.=.=.Y 4 0 Y =.=.=.=.Y 1 u Y Y Y Y Y =.1 C C Y Y Y Y Y e 9 Y ",
"C u n =.| 5 : C C C u H C : a u C Y Y Y C - m u a C C u C Y 5 Y ",
"1 1 & - - - O % & - - & 1 > 3 4 4 4 : : - + 1 : 1 1 1 7 1 7 ; 7 ",
"x.6.=.=.1 ,.6.6.6.=.6.- 0 r.r.i.6.6.b . : 6.i.i.6.6.=.h 8 e.6.j.",
"Y =.6.h 0 Y 6.=.=.Y =.: C =.Y Y =.Y 6.: h Y =.2.4.Y 6.C 4 Y Y Y ",
"=.=.=.C 7 Y Y =.=.Y Y = J =.=.=.Y Y =.: C Y Y Y =.Y Y 5 5 Y Y Y ",
"a a a 4 6 1 4 a 5 5 a $ 5 4 5 a 5 5 a - 2 5 5 5 5 5 u 5 5 a a 5 "
};
